<?xml version="1.0" encoding="utf-8"?>
<!-- Generator: Adobe Illustrator 24.0.1, SVG Export Plug-In . SVG Version: 6.00 Build 0)  -->
<svg version="1.1" id="Layer_1" xmlns="http://www.w3.org/2000/svg" xmlns:xlink="http://www.w3.org/1999/xlink" x="0px" y="0px"
	 viewBox="0 0 200 200" style="enable-background:new 0 0 200 200;" xml:space="preserve">
<style type="text/css">
	.st0{fill:#DA0080;stroke:#DA0080;stroke-miterlimit:10;}
	.st1{fill:none;stroke:#DA0080;stroke-width:4;stroke-miterlimit:10;}
	.st2{fill:#DA0080;stroke:#DA0080;stroke-width:4;stroke-miterlimit:10;}
</style>
<g>
	<path class="st0" d="M103.5,81.7c22.6,0,45.1,0,67.7,0c5.5,0,8.2,3.2,7.2,8.6c-3.9,20.4-7.9,40.9-11.8,61.3
		c-0.4,2.3-0.8,4.6-1.2,6.9c-0.5,3-3,5.3-6,5.6c-0.6,0-1.2,0-1.8,0c-35.9,0-71.8,0-107.7,0c-5.5,0-7.3-1.6-8.3-6.9
		c-2.1-11-4.2-22-6.4-33c-2.3-11.7-4.5-23.3-6.8-35c-0.6-3.3,1.8-6.7,5.3-7.3c0.7-0.1,1.4-0.1,2.2-0.1
		C58.4,81.7,80.9,81.7,103.5,81.7z M64.1,122.9c0-6,0-12.1,0-18.1c0-0.8,0-1.6-0.2-2.3c-0.3-1.6-1.6-2.6-3.2-2.6
		c-1.7,0-3.1,1-3.4,2.6c-0.2,0.8-0.2,1.7-0.2,2.5c0,11.9,0,23.8,0,35.6c0,0.8,0,1.6,0.1,2.3c0.3,1.7,1.7,2.8,3.4,2.8
		c2.2,0,3.4-1.5,3.4-4.2C64.2,135.2,64.1,129,64.1,122.9z M79.1,122.5c0,6,0,12.1,0,18.1c0,0.8,0,1.6,0.2,2.3
		c0.3,1.6,1.6,2.6,3.2,2.6c1.7,0,3.1-1,3.4-2.6c0.2-0.8,0.2-1.7,0.2-2.5c0-11.9,0-23.8,0-35.6c0-0.8,0-1.6-0.1-2.3
		c-0.3-1.7-1.7-2.8-3.4-2.8c-2.2,0-3.4,1.5-3.4,4.4C79.1,110.3,79.1,116.4,79.1,122.5z M106.8,122.7c0-5.9,0-11.9,0-17.8
		c0-0.8,0-1.6-0.1-2.3c-0.3-1.7-1.6-2.7-3.3-2.7c-1.8,0-3.1,1-3.4,2.8c-0.1,0.8-0.1,1.5-0.1,2.3c0,11.9,0,23.8,0,35.6
		c0,0.8,0,1.6,0.1,2.3c0.3,1.7,1.6,2.7,3.3,2.7c2.3,0,3.5-1.4,3.6-4.2C106.8,135.1,106.8,128.9,106.8,122.7z M128.5,122.8
		c0-4.9,0-9.8,0-14.7c0-1.8,0-3.6-0.1-5.3c-0.2-1.9-1.5-3-3.4-3c-1.8,0-3.1,1.1-3.4,3c-0.1,0.7-0.1,1.3-0.1,2c0,11.9,0,23.9,0,35.8
		c0,0.8,0,1.6,0.2,2.3c0.3,1.6,1.7,2.7,3.3,2.7c1.7,0,3-1,3.3-2.7c0.1-0.8,0.2-1.5,0.2-2.3C128.5,134.7,128.5,128.7,128.5,122.8z
		 M150.1,122.6c0-5.9,0-11.8,0-17.6c0-0.8,0-1.7-0.2-2.5c-0.3-1.6-1.6-2.7-3.3-2.7c-1.7,0-3,1-3.4,2.6c-0.1,0.8-0.2,1.5-0.2,2.3
		c0,11.9,0,23.9,0,35.8c0,0.8,0,1.6,0.2,2.3c0.3,1.6,1.6,2.7,3.3,2.7c1.7,0,3-1,3.4-2.6c0.1-0.8,0.2-1.5,0.2-2.3
		C150.1,134.6,150.1,128.6,150.1,122.6z"/>
	<path class="st0" d="M161.5,76.8c-2,0-3.7,0-5.5,0c-1,0-1.3-0.4-1.5-1.3c-1.4-8.9-2.9-17.7-4.3-26.6c-1-6.1-6.2-10.7-12.4-10.7
		c-4,0-8,0-12,0c-0.9,0-1.4,0.2-1.8,1.1c-1.2,2.5-3.3,3.8-6.1,3.8c-9.6,0-19.2,0-28.8,0c-2.8,0-4.9-1.3-6.1-3.8
		c-0.4-0.9-0.8-1.1-1.7-1.1c-4.1,0-8.2,0-12.3,0c-6.3,0-11.5,4.6-12.4,10.8c-1.4,8.8-2.8,17.6-4.3,26.4c-0.1,0.5-0.6,1.3-0.9,1.3
		c-2,0.1-3.9,0.1-6.1,0.1c1-6.1,1.9-11.8,2.8-17.5c0.6-3.7,1.2-7.4,1.8-11.2c1.4-9.3,8.5-15.9,17.8-16.5c4.5-0.3,9-0.2,13.5-0.2
		c0.8,0,1.2-0.2,1.5-1.1c1-3.3,3.3-4.9,6.8-4.9c9,0,18,0,27,0c5.1,0,6.7,1,8.5,6c3.8,0,7.8,0.2,11.7,0c10.7-0.6,19.4,8.1,20.5,17.3
		c1.1,9.1,2.8,18.1,4.2,27.1C161.5,76,161.5,76.2,161.5,76.8z"/>
</g>
<g>
	<polygon class="st1" points="409.4,87.2 409.4,78.5 386.4,78.5 386.4,87.2 371.3,87.2 371.3,81 348.3,81 348.3,94.3 332,94.3 
		332,112.4 348.3,112.4 348.3,114.9 367.5,114.9 367.5,121.1 390.5,121.1 390.5,112.4 399.1,112.4 399.1,121.1 422.1,121.1 
		422.1,110.7 422.1,87.2 	"/>
	<line class="st2" x1="348.3" y1="94.3" x2="348.3" y2="111.2"/>
	<line class="st2" x1="371.3" y1="87.2" x2="371.3" y2="111.2"/>
	<line class="st2" x1="386.4" y1="86.7" x2="386.4" y2="110.7"/>
	<line class="st2" x1="409.6" y1="86.7" x2="409.6" y2="110.7"/>
</g>
</svg>
