<?xml version="1.0" encoding="utf-8"?>
<!-- Generator: Adobe Illustrator 24.0.1, SVG Export Plug-In . SVG Version: 6.00 Build 0)  -->
<svg version="1.1" id="Camada_1" xmlns="http://www.w3.org/2000/svg" xmlns:xlink="http://www.w3.org/1999/xlink" x="0px" y="0px"
	 viewBox="0 0 595.3 841.9" style="enable-background:new 0 0 595.3 841.9;" xml:space="preserve">
<style type="text/css">
	.st0{fill:#DA0080;stroke:#DA0080;stroke-miterlimit:10;}
	.st1{fill:none;stroke:#DA0080;stroke-width:23;stroke-linecap:round;stroke-linejoin:round;stroke-miterlimit:22.9256;}
</style>
<g>
	<path class="st0" d="M914.3,670.8c0.1,3.6-0.6,8.1-2.1,13.7c-0.9,3.4-1.9,6.7-3.1,10c-1.2,3.3-2.3,5.7-3.3,7.5
		c0.2,0.5,0.2,0.9,0.1,1.2c-0.1,0.3-0.3,0.7-0.8,0.9c-0.3,0.2-0.6,0.3-0.8,0.3s-0.4-0.2-0.7-0.5c-0.1-0.2-0.7-1.2-1.6-2.8
		c-0.9-1.7-2-3.6-3.4-5.7c-2.4-3.6-4.6-6.8-6.6-9.6c-2.3-3.3-3.9-5.6-4.8-7c-1.4-2.1-2.4-4-2.8-5.6c-0.3-1.1,0-1.9,0.8-2.4
		c0.3-0.2,0.6-0.3,0.9-0.4c0.3,0,0.5,0,0.7,0.2c0.1,0.2,0.3,1,0.7,2.2c0.4,1.3,0.9,2.4,1.5,3.4c1.8,2.7,3.8,5.6,6,8.7
		c2.8,4,4.7,6.8,5.8,8.4c1.8,2.7,2.9,4.3,3.2,4.8c0.9-1.4,2-3.6,3.1-6.6c1.1-3,2-5.7,2.7-8c1.2-4.9,1.8-8.9,1.8-12
		c-0.1-3.2-0.9-5.9-2.5-8.3c-1.9-2.9-5.1-3.7-9.4-2.3c-4.3,1.4-9.4,4-15.3,7.9c-1.8,1.2-4,3-6.7,5.4c-0.5,0.4-1.3,1.2-2.3,2.3
		c-0.4,0.5-0.7,0.9-0.9,1c-0.3,0.2-0.7,0.1-1.3-0.1c-0.6-0.3-1-0.7-1.3-1.1c-0.1-0.2-0.1-0.4,0-0.8c0.1-0.3,0.5-0.7,0.9-1.1
		c2-1.7,3.6-3.2,5-4.3c1.4-1.2,3.1-2.4,5.2-3.8c6.5-4.3,12.3-7.2,17.3-8.4s8.8-0.2,11.1,3.3C913.3,664,914.3,667.2,914.3,670.8z"/>
	<path class="st0" d="M969.2,650.6c0,0.5-0.2,0.9-0.6,1.3c-0.6,0.5-1.1,0.5-1.6-0.1c-5.9-6.4-10.6-11-14.2-14c-3.5-3-5.8-4-6.8-3.1
		c-1.7,1.6,1.3,9.8,9.1,24.7l0,0c0.3,0.4,0.5,0.8,0.5,1.3c0,0.5-0.2,0.9-0.6,1.3c-0.6,0.5-1.1,0.5-1.6-0.1c-1.2-1.3-2.9-3.3-5.2-6
		c-2.6-3.1-4.7-5.5-6.3-7.2c-2.2-2.4-3.8-4-4.9-4.8c-1.1-0.9-1.8-1.1-2.3-0.6c-1.1,1-0.6,4.2,1.4,9.6c2,5.4,4.6,11.6,7.7,18.6
		l0.7,1.6c0.2,0.4,0.2,0.9,0.2,1.3c0,0.4-0.2,0.8-0.5,1.1c-0.4,0.4-0.7,0.6-0.8,0.6c-0.2,0.1-0.4-0.1-0.8-0.3
		c-1.6-1.4-3.6-3.3-6.1-5.8c-0.7-0.6-1.7-1.6-3.2-3.1c-5.3-5-8.9-8.4-10.9-10c-2-1.6-3.1-2.6-3.3-2.8c-0.2-0.2-0.4-0.7-0.5-1.2
		c-0.1-0.6,0-1,0.2-1.2c0.5-0.5,1.2-0.5,2.2-0.1c0.5,0.2,1.9,1.4,4.4,3.7c2.4,2.2,5.4,5.1,8.8,8.6l6.9,7c-3.2-6.9-5.9-13.5-8.1-19.5
		c-2.2-6.1-2.5-9.8-1-11.3c1-1,2.4-0.9,4.2,0.3c1.8,1.2,4,3.2,6.7,6c1.4,1.5,3.4,3.7,5.9,6.6l2,2.2c-2.9-5.7-5.1-10.7-6.7-14.9
		c-1.6-4.2-1.7-6.9-0.4-8.1c3.2-3,11.5,2.7,24.8,17C969,649.6,969.2,650.1,969.2,650.6z"/>
	<path class="st0" d="M994.5,614.2c0.4,0,0.7,0,0.9,0.2c0.4,0.3,0.7,0.9,1,1.6c0.3,0.8,0.2,1.3,0,1.6c-0.5,0.6-1.2,0.7-2.1,0.5
		c-0.9-0.3-1.9-0.8-2.8-1.5c-0.8-0.6-3.2-2.6-7.1-6l-1.9-1.6c-0.8-0.6-1.5-0.9-2.1-0.7c1.3,3.5,2.4,6.7,3.2,9.5
		c0.8,2.8,1.3,5.9,1.3,9.2c0,3.3-0.8,6.1-2.6,8.3c-0.9,1.1-1.9,1.6-3,1.7s-2.2-0.4-3.3-1.2c-1.3-1.1-2.7-3.1-4-6.2
		c-1.4-3.1-2.5-6.5-3.4-10.3c-0.9-3.8-1.3-7.2-1.4-10.4c0-2,0.1-3.6,0.4-4.6c0.2-1,0.6-1.8,1-2.4c0.4-0.5,1-1,1.8-1.3
		c0.8-0.3,1.7-0.4,2.6-0.3c0.9,0.1,1.8,0.4,2.5,1.1c1,0.8,1.8,1.9,2.3,3.2l0.4-1.1c0.3-0.4,0.9-0.2,1.9,0.4c0.6,0.4,1.7,1.2,3.4,2.5
		c1.7,1.3,3.1,2.3,4.2,3.1c1.1,0.9,2.2,1.7,3.3,2.5c1.1,0.8,1.9,1.4,2.5,1.9C993.7,614.2,994,614.3,994.5,614.2z M982.3,625.7
		c0-2.7-0.4-5.5-1.2-8.3c-0.8-2.8-1.9-6.1-3.3-9.9c-0.7-1.2-1.6-2.3-2.8-3.2c-0.7-0.6-1.5-0.8-2.3-0.8c-0.9,0-1.6,0.4-2.1,1.1
		c-0.7,0.8-1,2.4-0.9,4.6c0.1,2.5,0.5,5.5,1.3,8.9c0.8,3.4,1.8,6.5,2.9,9.2c1.2,2.8,2.4,4.6,3.6,5.6c1,0.8,1.9,0.7,2.6-0.2
		C981.5,630.7,982.3,628.4,982.3,625.7z"/>
	<path class="st0" d="M995,572.5c0.1,0.7,0.1,1.2-0.1,1.6c-0.2,0.3-0.4,0.4-0.8,0.5c-0.4,0.1-0.8,0.2-1.4,0.2c-0.5,0-1,0.2-1.6,0.4
		c-0.5,0.3-0.9,0.6-1.2,1c-0.7,1.1-0.2,3.3,1.5,6.9c1.6,3.5,4,7.5,7.1,11.9c0.9,0.5,1.9,1.1,3.3,1.8c1.3,0.7,2.3,1.2,2.9,1.6
		l2.3,1.2c0.5,0.3,0.9,0.7,1.1,1.2c0.2,0.5,0.2,1-0.2,1.6c-0.4,0.6-1.5,0.5-3.2-0.4c-1.8-0.9-4.2-2.3-7.4-4.2
		c-0.8-0.5-2-1.2-3.5-2.1c-1.5-0.9-3.3-2-5.4-3.2c-3.2-1.9-5.4-3.2-6.8-4.1c-0.8-0.5-0.9-1.3-0.3-2.3c0.4-0.6,0.9-0.8,1.5-0.6
		c0.6,0.2,1.7,0.8,3.1,1.7l8.6,5.5c-2.1-2.9-3.8-5.6-5-8.1c-1.2-2.6-2-4.8-2.3-6.7c-0.3-1.9-0.1-3.3,0.5-4.2c0.5-0.8,1.2-1.4,2-1.9
		c0.8-0.5,1.6-0.8,2.5-0.9c0.8-0.1,1.5,0,2,0.4C994.6,571.3,994.8,571.7,995,572.5z"/>
	<path class="st0" d="M1029.2,554.7c0.9,2.1,1.2,4.6,1.1,7.3c-0.2,2.7-0.9,5.3-2.1,7.7c-0.8,1.7-1.5,2.7-2.1,3.1
		c-0.6,0.4-1.2,0.5-1.7,0.2c-0.3-0.2-0.7-0.9-1.2-2.2c-0.4-1.3-0.6-2.1-0.4-2.4c0.2-0.5,0.4-0.6,0.6-0.5c0.2,0.1,0.3,0.2,0.3,0.5
		c0.1,0.3,0.1,0.4,0.3,0.5c0.2,0.1,0.4-0.1,0.8-0.5c0.4-0.4,0.8-1,1.1-1.6c0.8-1.6,1.3-3.4,1.5-5.3c0.2-1.9,0.1-3.7-0.3-5.2
		c-0.4-1.5-1.2-2.5-2.3-3.1c-1-0.5-2-0.6-3-0.3c-0.9,0.3-1.8,0.9-2.6,1.8c-0.8,0.8-2,2.3-3.7,4.3c-1.8,2.2-3.3,4-4.5,5.1
		c-1.1,1.2-2.3,2-3.4,2.5c-1.1,0.5-2.2,0.5-3.2,0c-1.8-0.9-3.1-2.7-3.7-5.2c-0.6-2.6-0.8-5.2-0.5-8c0.3-2.8,0.7-4.8,1.4-6.1
		c0.6-1.3,1.4-1.8,2.1-1.4c0.5,0.2,0.9,0.6,1.3,1.2c0.4,0.6,0.5,1.2,0.1,1.8c-0.1,0.2-0.3,0.4-0.6,0.6c-0.3,0.2-0.5,0.4-0.7,0.7
		c-0.4,0.8-0.7,2.1-1.1,4c-0.3,1.9-0.3,3.8,0,5.6c0.3,1.8,1.2,3.1,2.6,3.8c0.9,0.5,1.9,0.3,2.8-0.6c1-0.8,2.5-2.5,4.6-5.1
		c0.3-0.3,0.5-0.6,0.8-0.9c0.2-0.3,0.4-0.6,0.7-0.8c2.2-2.6,4.1-4.5,5.7-5.6c1.7-1.1,3.4-1.3,5.1-0.4
		C1027,551.1,1028.3,552.6,1029.2,554.7z"/>
	<path class="st0" d="M1002.4,526.2c-0.3,0.7-0.8,1.3-1.7,1.7c-0.8,0.5-1.4,0.6-1.8,0.5c-0.4-0.2-0.8-0.5-1-1.1
		c-0.2-0.6-0.3-1.1-0.1-1.5c0.4-0.5,1-0.9,1.5-1.1c0.4-0.2,1-0.4,1.7-0.6s1.1-0.3,1.2-0.2C1002.9,524.1,1002.9,524.9,1002.4,526.2z
		 M1041.2,538.2c0.1,0.4,0,0.9-0.2,1.3c-0.3,0.5-1.3,0.6-3.2,0.2c-1.9-0.4-5.3-1.5-10.3-3.1c-3.3-1.1-6.5-2.2-9.6-3.3
		c-3.1-1.1-5.6-2-7.2-2.6c-0.4-0.2-0.7-0.4-0.9-0.6c-0.2-0.2-0.2-0.5,0-0.9c0.4-0.9,1-1.3,1.8-1.3c0.9,0.1,2.4,0.5,4.5,1.4l7,2.9
		c4,1.6,7.3,2.8,9.8,3.5c0.1,0,1.5,0.4,4,1c1.8,0.4,3,0.7,3.5,0.9C1040.9,537.5,1041.1,537.8,1041.2,538.2z"/>
	<path class="st0" d="M1046.2,518.4c0.1,0.6,0,1.2-0.2,1.9c-0.2,0.5-0.9,0.8-2.2,0.8c-1.3,0-3.1-0.3-5.5-1.1
		c-4.6-1.6-10.1-3.5-16.6-5.7s-11.4-4-14.6-5.1c-1.2-0.4-2.2-1-3.1-1.7c-0.9-0.7-1.2-1.6-0.9-2.6c0.1-0.3,0.4-0.5,0.7-0.5
		c0.4,0,1.1,0.2,2,0.5c0,0,0.2,0.1,0.4,0.2c0.2,0.1,0.6,0.2,1.2,0.4c10.5,4.3,20.8,8.1,31,11.4c1.3,0.4,2.8,0.6,4.5,0.5
		c1.7-0.1,2.5-0.1,2.6-0.1C1045.9,517.5,1046.2,517.8,1046.2,518.4z"/>
	<path class="st0" d="M1024.8,440c0.4,0.6,0.7,1.2,0.7,1.9c0.2,2.4,0.1,5-0.3,8l2,0c4.8,0,9.3,0.1,13.6,0.3
		c4.3,0.2,8.3,0.5,12.2,1.1c4.6,0.7,7.7,2,9.3,4s2.2,5,1.6,8.8c-0.4,2.5-1.3,5.2-3,8.3c-1.6,3.1-3.4,5.6-5.5,7.7
		c-2,2.1-3.8,3-5.2,2.8c-0.6-0.1-1.2-0.5-1.7-1.2c-0.5-0.7-0.9-1.5-1.2-2.4c-0.3-0.9-0.4-1.5-0.4-1.8c0.1-0.6,0.3-0.9,0.6-1
		c0.4-0.2,0.6-0.2,0.8-0.2c0.2,0,0.4,0.2,0.5,0.5c0.2,0.7,0.4,1.2,0.6,1.5c0.2,0.3,0.5,0.5,0.9,0.5c1,0.1,2.3-0.5,3.8-2.1
		c1.5-1.5,2.9-3.5,4.2-5.9c1.3-2.4,2.1-4.6,2.4-6.8c0.3-1.9,0.3-3.4,0-4.6c-0.3-1.2-1-2.2-2.3-3.1c-1.3-0.8-3.3-1.5-6.1-1.9
		c-4.6-0.7-12.3-1-23.1-1.1c-1,0-1.9,0-2.7,0c-0.8,0-1.5,0-2-0.1c-0.4,2.9-0.8,5.2-1.1,6.9c-0.5,3.2-1.1,5.9-1.7,8.1
		c-0.2,0.6-0.5,1.1-1,1.5c-0.5,0.3-1,0.5-1.6,0.4c-0.3,0-0.5-0.2-0.7-0.5c-0.2-0.3-0.3-0.6-0.3-0.9c0.1-0.8,0.3-1.8,0.6-2.9
		c0.7-3,1.4-6.3,1.9-9.9l0.4-2.5c-1.1,0-1.9,0-2.4-0.1c-0.4-0.1-0.7-0.4-1-0.9c-0.3-0.5-0.4-1-0.3-1.4c0.1-0.5,0.5-0.9,1.3-1
		c0.4-0.1,1.3-0.2,2.9-0.2c0.3-2,0.4-3.6,0.5-4.8c0-1.2,0-1.9,0-2c0-1.2,0-2,0.1-2.4c0.1-0.4,0.2-0.8,0.3-1c0.2-0.3,0.4-0.4,0.6-0.3
		C1023.9,439.1,1024.4,439.4,1024.8,440z"/>
	<path class="st0" d="M1055.5,414c2.2,1.3,4,3.1,5.5,5.4c1.5,2.3,2.2,4.9,2.2,7.8c-0.1,2.9-0.9,5-2.5,6.3c-1.6,1.3-3.6,2-6,1.9
		c-2.1,0-4.6-0.5-7.6-1.3c-3-0.8-5.7-1.9-8.1-3.4c-0.2-0.1-0.8-0.5-1.9-1.1c-1.1-0.6-1.9-1.4-2.5-2.1c-0.6-0.8-0.8-1.6-0.8-2.5
		c0-0.4,0.1-0.7,0.3-1.1c0.2-0.3,0.5-0.5,0.7-0.5c0.1,0,0.3,0.1,0.6,0.4c0.3,0.2,0.6,0.4,0.7,0.6c1.7,1.5,3.4,2.7,5.1,3.7
		c2.2,1.2,4.3,2.2,6.4,2.9c2.1,0.7,4.5,1.1,7,1.1c3.4,0.1,5.1-1.9,5.2-6.1c0-1.9-0.5-3.7-1.6-5.4c-1.1-1.7-2.4-3-4-4
		c-1.6-1-3-1.5-4.4-1.6c-1.5,0-2.8,0.4-4,1.4c-1.1,1-2.3,2.3-3.6,4c-0.8,1.1-1.5,1.9-2.1,2.4c-0.5,0.5-1,0.8-1.3,0.7
		c-0.5,0-0.9-0.4-1.2-1.1c-0.3-0.7-0.5-1.6-0.4-2.6c0-0.6,0.1-0.9,0.1-1.1c0.1-0.2,0.2-0.3,0.4-0.2c0.1,0,0.2,0.1,0.4,0.2
		s0.4,0.2,0.5,0.2c0.1,0,0.6-0.4,1.3-1.3c1.5-1.7,2.9-3.1,4.4-4.2c1.5-1.1,3.2-1.7,5.2-1.6C1051.4,412,1053.3,412.7,1055.5,414z"/>
	<path class="st0" d="M1023.1,400.1c0,0.7-0.2,1.5-0.8,2.3c-0.6,0.8-1,1.2-1.4,1.2c-0.5,0-0.9-0.2-1.4-0.6c-0.5-0.4-0.7-0.9-0.7-1.3
		c0.2-0.7,0.5-1.2,0.9-1.7c0.3-0.4,0.8-0.8,1.3-1.2c0.5-0.5,0.9-0.7,1-0.7C1022.6,398,1023,398.7,1023.1,400.1z M1063.3,394.6
		c0.3,0.3,0.4,0.8,0.4,1.2c0,0.6-0.9,1.1-2.8,1.5c-1.9,0.4-5.4,0.9-10.7,1.5c-3.5,0.4-6.8,0.7-10.2,1c-3.3,0.3-5.9,0.5-7.7,0.7
		c-0.5,0-0.8,0-1.1-0.2c-0.2-0.1-0.4-0.4-0.4-0.8c-0.1-1,0.3-1.6,1.1-1.9c0.8-0.3,2.4-0.5,4.7-0.6l7.6-0.4c4.3-0.2,7.8-0.6,10.4-1
		c0.1,0,1.5-0.3,4.1-0.8c1.8-0.4,3-0.6,3.6-0.7C1062.7,394.1,1063.1,394.3,1063.3,394.6z"/>
	<path class="st0" d="M1053.7,352.7c0.3-0.3,0.5-0.5,0.7-0.6c0.5-0.1,1.1,0,1.8,0.4c0.7,0.3,1.1,0.7,1.2,1.1
		c0.1,0.7-0.3,1.3-1.1,1.9s-1.8,0.9-3,1.1c-1,0.2-4.1,0.6-9.2,1.2l-2.4,0.3c-1,0.1-1.6,0.5-2,1.1c3.5,1.4,6.6,2.8,9.2,4
		c2.6,1.3,5.2,3,7.7,5.3c2.5,2.2,4,4.7,4.4,7.5c0.2,1.4-0.1,2.5-0.8,3.3c-0.7,0.9-1.8,1.4-3.1,1.6c-1.7,0.3-4.1-0.1-7.3-1.2
		c-3.2-1.1-6.5-2.6-9.9-4.5c-3.4-1.9-6.3-3.9-8.6-6c-1.5-1.4-2.6-2.5-3.2-3.4c-0.6-0.9-0.9-1.7-1.1-2.4c-0.1-0.7,0-1.4,0.3-2.2
		c0.3-0.8,0.8-1.5,1.5-2.1s1.5-1,2.5-1.2c1.3-0.2,2.6,0,3.9,0.5l-0.5-1c-0.1-0.5,0.5-0.8,1.6-1.1c0.7-0.1,2-0.4,4.1-0.8
		c2.1-0.4,3.8-0.7,5.1-1c1.4-0.3,2.7-0.5,4-0.8c1.3-0.2,2.3-0.4,3.1-0.6C1053.2,353.3,1053.5,353.1,1053.7,352.7z M1053.9,369.4
		c-2-1.9-4.3-3.4-6.9-4.8c-2.6-1.3-5.8-2.7-9.5-4.2c-1.4-0.3-2.8-0.4-4.3-0.1c-0.9,0.1-1.6,0.5-2.2,1.2c-0.6,0.6-0.8,1.4-0.7,2.3
		c0.2,1.1,1.1,2.3,2.8,3.7c1.9,1.7,4.4,3.3,7.4,5c3,1.7,5.9,3.1,8.8,4.1c2.8,1,5,1.4,6.6,1.1c1.3-0.2,1.8-0.9,1.6-2.1
		C1057.2,373.4,1056,371.3,1053.9,369.4z"/>
	<path class="st0" d="M1044.6,318.5c2.1,1,4,2.6,5.6,4.7c1.7,2.1,2.9,4.5,3.6,7.1c0.5,1.8,0.7,3,0.5,3.7c-0.2,0.7-0.5,1.2-1.1,1.3
		c-0.4,0.1-1.2-0.2-2.3-0.9c-1.2-0.7-1.8-1.2-1.9-1.5c-0.1-0.5-0.1-0.8,0.1-0.8c0.2,0,0.4,0,0.6,0.2c0.2,0.2,0.4,0.2,0.5,0.2
		c0.2,0,0.3-0.3,0.3-0.9c0-0.6-0.1-1.2-0.3-2c-0.5-1.7-1.3-3.4-2.4-5c-1.1-1.6-2.4-2.8-3.7-3.6c-1.3-0.8-2.6-1.1-3.8-0.8
		c-1.1,0.3-1.9,0.9-2.4,1.8c-0.5,0.9-0.7,1.9-0.7,3s0,3,0.1,5.7c0.1,2.9,0.2,5.2,0.1,6.8c-0.1,1.6-0.3,3-0.8,4.1
		c-0.5,1.1-1.3,1.8-2.4,2.1c-2,0.6-4.1,0.1-6.3-1.4c-2.2-1.5-4.1-3.4-5.8-5.6c-1.7-2.3-2.7-4.1-3-5.4c-0.4-1.4-0.2-2.2,0.7-2.5
		c0.5-0.1,1.1-0.1,1.8,0c0.7,0.2,1.1,0.6,1.3,1.2c0.1,0.2,0.1,0.5-0.1,0.9c-0.1,0.3-0.1,0.7,0,0.9c0.2,0.8,0.9,2.1,1.9,3.7
		c1,1.6,2.3,3,3.8,4.2c1.5,1.1,3,1.5,4.5,1.1c1-0.3,1.6-1,1.7-2.3c0.2-1.3,0.2-3.6,0-6.8c0-0.4,0-0.8,0-1.2c0-0.4-0.1-0.7-0.1-1.1
		c-0.1-3.4,0-6.1,0.5-8c0.5-2,1.7-3.2,3.6-3.7C1040.5,317.2,1042.5,317.5,1044.6,318.5z"/>
	<path class="st0" d="M1008.7,263.9c0.7-0.3,2.5-0.6,5.3-0.7c2.9-0.1,5.8,0.3,8.8,1.4c3,1.1,5.3,3.1,6.8,6.1
		c1.2,2.5,1.5,4.9,0.7,7.3c-0.7,2.4-2.7,4.4-5.9,6c-3,1.5-6.3,2.3-9.9,2.3c-3.6,0.1-6.9-0.5-9.9-1.9c-3-1.3-5-3.2-6.2-5.5
		c-0.7-1.4-1-2.8-0.8-4.1s0.8-2.2,2-2.8c1.3-0.7,3-0.6,5,0.3c2,0.9,4.1,2.3,6.3,4.3s4.1,4.1,5.8,6.5c2-0.4,3.8-1,5.5-1.9
		c2.2-1.1,3.7-2.5,4.4-4.2s0.6-3.5-0.4-5.4c-1.5-3-3.7-4.8-6.7-5.6c-3-0.8-6.2-1.2-9.4-1.1c-0.2,0-0.6,0-1.1,0c-0.5,0-0.8,0-0.9-0.2
		C1007.9,264.5,1008.2,264.2,1008.7,263.9z M1000.6,276c0,0.8,0.2,1.6,0.6,2.5c0.7,1.5,1.9,2.6,3.5,3.5s3.3,1.4,5.1,1.7
		c1.8,0.2,3.3,0.2,4.4,0c-1.1-1.7-2.5-3.3-4.3-4.9c-1.8-1.6-3.5-2.8-5.1-3.6c-1.6-0.9-2.7-1.1-3.4-0.8
		C1000.9,274.6,1000.6,275.2,1000.6,276z"/>
	<path class="st0" d="M967.8,213.1c0.8,0.9,3,2.8,6.5,5.7c3.5,3,6.1,5.1,7.9,6.4c0.7-0.6,2.3-1.8,4.7-3.7c2.4-1.9,4.4-3.5,6-4.8
		c0.6-0.5,1.3-1.2,2-1.9c0.7-0.7,1.2-1.2,1.5-1.5c1.1-1.1,1.7-1.8,2-2c0.4-0.3,1.1-0.5,2.1-0.7c1-0.2,1.6-0.2,1.8,0
		c0.2,0.2,0.2,0.5,0.2,0.9c-0.1,0.4-0.3,0.7-0.5,1.1c-1.3,1.5-3.6,3.7-6.9,6.5c-4,3.4-7.2,6-9.6,7.8c0.2,0.2,0.5,0.5,0.9,0.9
		c0.4,0.4,0.8,0.7,1.1,1.1c0.3,0.3,0.5,0.8,0.6,1.3c0.1,0.5,0.1,0.9-0.2,1c-0.3,0.2-0.5,0.3-0.8,0.2c-0.3-0.1-0.6-0.2-0.8-0.4
		s-0.5-0.3-0.6-0.4c-1.5-0.8-2.4-1.4-2.9-1.7l-11,9.2c2.4,2.2,4,3.9,4.9,5.1c1,1.3,1.4,2.5,1.2,3.5c-0.3,1-0.7,1.7-1.2,2.1
		c-0.3,0.2-0.6,0.1-1-0.3c-0.1-0.1-0.2-0.6-0.6-1.5c-0.3-0.9-0.7-1.6-1.1-2.2c-0.8-1.1-2.4-2.7-4.5-4.8c-0.1,0.1-0.3,0.2-0.8,0.6
		c-0.5,0.3-1,0.5-1.6,0.5c-0.4,0.1-0.8,0.1-1,0c-0.2-0.1-0.4-0.2-0.5-0.3c-0.5-0.6,0-1.5,1.4-2.6c-0.5-0.4-1.5-1.3-3.1-2.8
		c-1.6-1.4-3.4-3.1-5.3-5.1c-2-2-3.6-3.7-4.8-5.3c-1-1.3-1.2-2.1-0.7-2.5c0.4-0.3,1-0.6,1.9-0.8c0.9-0.2,1.4-0.1,1.7,0.2
		c0.1,0.1,0.1,0.3,0.1,0.6c0,0.3-0.1,0.4,0,0.5c0.1,0.4,0.4,0.9,0.8,1.5c0.8,1.1,2.7,3,5.5,5.8c2.9,2.8,5,4.8,6.4,5.9l10.8-8.9
		c-1.9-1.5-4.7-3.8-8.5-6.9s-5.9-5.1-6.4-5.7c-0.2-0.3-0.3-0.5-0.3-0.7c0-0.2,0.1-0.4,0.4-0.6C966.2,212.5,967.1,212.4,967.8,213.1z
		"/>
	<path class="st0" d="M953.5,179.5c2.4-0.7,5-0.7,7.7-0.2c2.7,0.5,5.1,1.8,7.1,3.9c2,2,3,4.1,2.8,6.2c-0.2,2.1-1.1,4-2.8,5.6
		c-1.5,1.4-3.5,3-6.2,4.6c-2.7,1.6-5.4,2.8-8.1,3.5c-0.2,0.1-0.9,0.3-2.1,0.6c-1.2,0.3-2.3,0.4-3.3,0.3c-1-0.1-1.7-0.5-2.3-1.1
		c-0.3-0.3-0.4-0.6-0.5-1c-0.1-0.4,0-0.7,0.2-0.9c0.1-0.1,0.3-0.1,0.7-0.2s0.7-0.1,0.9-0.1c2.3-0.2,4.3-0.6,6.2-1.1
		c2.4-0.7,4.6-1.5,6.6-2.6c2-1,3.9-2.4,5.7-4.2c2.4-2.4,2.2-5-0.7-8c-1.4-1.4-3-2.3-5-2.6c-2-0.4-3.8-0.4-5.7,0.1
		c-1.8,0.4-3.2,1.1-4.2,2c-1.1,1.1-1.7,2.3-1.8,3.8c-0.1,1.5,0,3.3,0.3,5.4c0.2,1.4,0.3,2.4,0.3,3.1c0,0.7-0.1,1.2-0.4,1.5
		c-0.4,0.4-0.9,0.4-1.7,0.1c-0.7-0.3-1.5-0.8-2.2-1.5c-0.4-0.4-0.6-0.7-0.7-0.8c-0.1-0.2-0.1-0.3,0.1-0.4c0.1-0.1,0.2-0.1,0.5-0.1
		c0.2,0,0.4-0.1,0.5-0.2c0.1-0.1,0.1-0.7,0-1.8c-0.2-2.2-0.2-4.2,0-6.1c0.2-1.8,1-3.5,2.4-4.9C949.2,181.1,951,180.2,953.5,179.5z"
		/>
	<path class="st0" d="M944,162c0.6,0.2,1.1,0.5,1.7,0.9c0.4,0.3,0.4,1.1-0.1,2.3c-0.5,1.2-1.5,2.8-3.1,4.7c-3.2,3.6-7.1,8-11.7,13.2
		c-4.6,5.1-8,9-10.4,11.6c-0.8,0.9-1.8,1.6-2.8,2.2c-1,0.5-1.9,0.5-2.7-0.2c-0.3-0.2-0.3-0.5-0.2-0.9c0.2-0.3,0.6-0.9,1.2-1.7
		c0,0,0.1-0.1,0.3-0.3c0.2-0.2,0.5-0.5,0.8-0.9c8-8,15.4-16.1,22.4-24.2c0.9-1,1.6-2.3,2.2-3.9c0.5-1.6,0.8-2.4,0.9-2.5
		C942.9,161.9,943.4,161.8,944,162z"/>
	<path class="st0" d="M912,134c0.5-0.1,1,0,1.4,0.3c0.3,0.3,0.6,0.5,0.7,0.9c0.1,0.3,0.1,0.6-0.1,0.9l-2.7,3.5
		c-3.2,4.2-5.8,7.6-7.8,10.3c-2.8,4-4.5,7-5.1,9c-0.6,2-0.5,3.2,0.2,3.8c1.6,1.2,5.5,0.1,11.6-3.2c6.1-3.3,12.5-7.2,19.1-11.5
		c0.5-0.4,1.1-0.7,1.7-0.9s1.1-0.3,1.4,0c0.8,0.5,1,1.1,0.6,1.6c-1.5,2.1-4.3,6.2-8.3,12.2c-4,6-6.6,9.9-7.8,11.9
		c-4.1,6.5-6.6,10.5-7.4,12.2s-1.2,2.6-1.3,2.7c-0.2,0.3-0.6,0.5-1.1,0.4c-0.5-0.1-1.1-0.4-1.7-0.8c-0.5-0.4-0.1-1.7,1.3-4.1
		c1.4-2.4,3.2-5.3,5.6-8.9l1-1.5c0.7-1.1,2.9-4.3,6.5-9.4c3.6-5.1,6.3-8.9,8-11.3c-4.5,2.9-8.5,5.4-12.2,7.5
		c-3.7,2.1-7.4,3.9-11.2,5.3c-3.8,1.4-6.5,1.6-8.1,0.4c-1.3-0.9-1.7-2.9-1-5.7c0.7-2.9,2.6-6.5,5.7-10.9c1.4-2,3.3-4.7,5.7-8.2
		l3.9-5.5C911.2,134.4,911.5,134.1,912,134z"/>
	<path class="st0" d="M867.7,128.8c0.4-0.7,1.7-1.9,3.9-3.6c2.3-1.7,4.9-3.1,8-3.9c3.1-0.9,6.1-0.5,9,1.1c2.4,1.3,4,3.2,4.8,5.6
		c0.8,2.4,0.3,5.1-1.4,8.3c-1.6,2.9-3.9,5.5-6.8,7.6c-2.9,2.1-6,3.5-9.2,4.1c-3.2,0.6-5.9,0.3-8.3-1c-1.4-0.8-2.4-1.7-3-2.9
		c-0.6-1.1-0.6-2.3,0-3.5c0.7-1.3,2.2-2.2,4.3-2.6c2.2-0.4,4.7-0.5,7.6-0.1c2.9,0.4,5.7,1,8.5,2c1.4-1.5,2.6-3.1,3.5-4.7
		c1.2-2.2,1.6-4.2,1.2-5.9c-0.4-1.8-1.5-3.2-3.4-4.2c-2.9-1.6-5.8-1.8-8.8-0.8c-2.9,1.1-5.7,2.6-8.3,4.5c-0.2,0.1-0.5,0.3-0.9,0.7
		c-0.4,0.3-0.7,0.5-0.9,0.4C867.4,129.8,867.4,129.4,867.7,128.8z M867.9,143.4c0.4,0.7,1.1,1.2,1.9,1.7c1.4,0.8,3.1,1.1,4.9,0.8
		c1.8-0.2,3.6-0.7,5.2-1.6c1.6-0.8,2.8-1.7,3.6-2.6c-1.8-0.8-3.9-1.3-6.3-1.5c-2.4-0.3-4.4-0.3-6.3,0c-1.8,0.2-2.9,0.6-3.2,1.2
		C867.4,142.1,867.5,142.7,867.9,143.4z"/>
	<path class="st0" d="M836.9,102.4c-0.2-0.4-0.2-0.7-0.1-0.9c0.2-0.5,0.6-0.9,1.3-1.4s1.2-0.6,1.6-0.4c0.7,0.3,1,0.9,1,1.9
		c0,1-0.2,2-0.6,3.1c-0.4,1-1.6,3.8-3.7,8.5l-1,2.2c-0.4,0.9-0.4,1.7-0.1,2.3c3-2.3,5.7-4.2,8.2-5.8c2.5-1.6,5.3-2.9,8.5-3.9
		c3.2-1,6.1-1,8.7,0.1c1.3,0.5,2.1,1.3,2.5,2.4c0.4,1.1,0.3,2.3-0.2,3.5c-0.6,1.6-2.2,3.5-4.8,5.7c-2.6,2.2-5.5,4.2-8.9,6.2
		c-3.4,1.9-6.6,3.4-9.5,4.3c-2,0.6-3.5,0.9-4.5,1c-1,0.1-1.9,0-2.6-0.3c-0.6-0.3-1.2-0.7-1.7-1.4c-0.5-0.7-0.9-1.5-1.1-2.4
		c-0.2-0.9-0.1-1.8,0.3-2.7c0.5-1.2,1.3-2.3,2.4-3.1l-1.1-0.1c-0.4-0.2-0.5-0.8-0.1-1.9c0.2-0.7,0.7-2,1.4-3.9
		c0.7-2,1.3-3.6,1.8-4.9c0.5-1.3,1-2.6,1.4-3.9c0.5-1.2,0.8-2.2,1.1-3C837.1,103.1,837.1,102.8,836.9,102.4z M851.4,110.8
		c-2.6,0.8-5.2,2-7.6,3.5c-2.5,1.6-5.3,3.6-8.5,6c-1,1-1.7,2.2-2.3,3.6c-0.3,0.8-0.4,1.7-0.1,2.5c0.2,0.8,0.8,1.4,1.6,1.7
		c1,0.4,2.5,0.2,4.6-0.5c2.4-0.8,5.1-2,8.1-3.8c3-1.7,5.7-3.5,8-5.5s3.8-3.6,4.3-5c0.5-1.2,0.2-2-0.9-2.5
		C856.4,110,854,110,851.4,110.8z"/>
	<path class="st0" d="M790.1,131c0.2-0.8,0.7-2.4,1.5-4.8c0.8-2.4,1.5-4.8,2.1-7.3c1.3-4.7,2.5-9.6,3.7-14.5c1.1-5,1.9-8.2,2.2-9.8
		c0.1-0.2,0.1-0.5,0.2-0.8c0-0.3,0.1-0.6,0.1-0.8c0.2-1.2,0.3-1.9,0.3-2.2c0.1-0.4,0.5-0.7,1.2-0.9c0.7-0.2,1.2-0.3,1.6-0.2
		c0.5,0.1,0.7,0.4,0.8,0.8c0.1,0.4,0,0.9-0.2,1.5c-0.6,2.3-1.3,4.6-2.1,7.1l-1,3.5c-0.3,1.2-0.7,2.7-1.2,4.6
		c-0.5,1.9-0.8,3.5-1.1,4.8c4-6.2,7.9-11.2,11.8-14.9c3.9-3.7,7.4-5.1,10.5-4.3c1.4,0.4,2.4,1.4,3,3c0.6,1.6,0.6,3.6-0.1,6.1
		c-0.9,3.3-3,6.5-6.3,9.8c-3.3,3.2-6.7,5.9-10.3,7.8c-3.6,2-6.1,2.8-7.4,2.4c-1.3-0.4-1.9-1-1.6-1.8c0.2-0.6,0.5-1.2,1.1-1.9
		s1.2-1.2,1.9-1.7c0.6-0.5,1-0.7,1.1-0.7c0.1,0,0.2,0.1,0.3,0.2c0.1,0.1,0.1,0.2,0.1,0.3c-0.1,0.2-0.3,0.5-0.6,1
		c-0.3,0.4-0.5,0.7-0.6,0.9c-0.1,0.2-0.1,0.4-0.1,0.5s0.1,0.2,0.3,0.2c0.9,0.2,2.8-0.5,5.7-2.3c2.9-1.8,5.7-4,8.4-6.8
		c2.7-2.8,4.4-5.6,5.2-8.4c0.3-1,0.3-2,0.1-3c-0.2-1-0.7-1.6-1.7-1.9c-3-0.8-6.5,0.9-10.5,5.3c-4,4.4-7.8,9.6-11.5,15.6l-1.3,5.2
		c-1.1,4.6-1.8,7.1-1.8,7.4c-0.7,2.5-1.3,4.2-1.8,5.3c-0.2,0.4-0.4,0.7-0.5,0.8c-0.1,0.1-0.4,0.2-0.7,0.1c-0.4-0.1-0.8-0.4-1.1-0.7
		c-0.3-0.4-0.4-0.8-0.3-1.3L790.1,131z"/>
	<path class="st0" d="M765.6,89.5c1.6-2,3.6-3.5,6.1-4.7c2.5-1.2,5.2-1.5,8.1-1.1c2.8,0.5,4.8,1.6,5.9,3.4c1.1,1.8,1.5,3.8,1.1,6.2
		c-0.3,2-1.1,4.5-2.4,7.4c-1.2,2.9-2.7,5.4-4.5,7.5c-0.1,0.2-0.6,0.7-1.4,1.7c-0.8,1-1.6,1.7-2.5,2.1c-0.9,0.4-1.7,0.6-2.6,0.5
		c-0.4-0.1-0.7-0.2-1-0.5c-0.3-0.2-0.4-0.5-0.4-0.8c0-0.1,0.2-0.3,0.4-0.5c0.3-0.3,0.5-0.5,0.7-0.6c1.7-1.5,3.2-3,4.3-4.6
		c1.5-2,2.8-4,3.8-6c1-2,1.7-4.3,2.1-6.8c0.6-3.3-1.2-5.4-5.3-6c-1.9-0.3-3.8-0.1-5.6,0.8c-1.8,0.8-3.3,2-4.6,3.4s-2,2.8-2.2,4.1
		c-0.2,1.5,0,2.9,0.8,4.1c0.8,1.3,1.9,2.6,3.4,4.2c1,1,1.7,1.8,2.1,2.4c0.4,0.6,0.6,1.1,0.6,1.4c-0.1,0.5-0.5,0.9-1.3,1.1
		c-0.8,0.2-1.6,0.2-2.6,0.1c-0.5-0.1-0.9-0.2-1.1-0.3c-0.2-0.1-0.2-0.2-0.2-0.4c0-0.1,0.1-0.2,0.3-0.4c0.2-0.2,0.3-0.3,0.3-0.4
		c0-0.1-0.3-0.6-1.1-1.5c-1.5-1.7-2.7-3.3-3.6-5c-0.9-1.6-1.2-3.4-0.9-5.4C763.1,93.3,764,91.5,765.6,89.5z"/>
	<path class="st0" d="M731.2,82.7c1.6-1.6,3.7-2.9,6.3-3.8c2.5-0.9,5.2-1.3,7.9-1.1c1.8,0.1,3.1,0.4,3.7,0.7
		c0.6,0.4,0.9,0.9,0.9,1.5c0,0.4-0.6,1-1.6,1.9c-1,0.9-1.7,1.3-2.1,1.3c-0.5,0-0.8-0.2-0.8-0.4c0-0.2,0.1-0.3,0.4-0.5
		c0.2-0.2,0.3-0.3,0.4-0.4c0-0.2-0.2-0.4-0.8-0.6c-0.5-0.2-1.2-0.3-1.9-0.4c-1.8-0.1-3.6,0.1-5.5,0.7c-1.9,0.6-3.4,1.3-4.6,2.3
		c-1.2,1-1.9,2.1-1.9,3.3c-0.1,1.2,0.2,2.1,0.9,2.8c0.7,0.7,1.6,1.3,2.6,1.7s2.9,1,5.4,1.7c2.8,0.8,4.9,1.5,6.5,2.1
		c1.5,0.6,2.7,1.3,3.6,2.1c0.9,0.8,1.3,1.8,1.2,2.9c-0.1,2.1-1.2,3.9-3.4,5.5c-2.1,1.6-4.5,2.8-7.2,3.6c-2.7,0.8-4.7,1.2-6.1,1.1
		c-1.5-0.1-2.2-0.6-2.1-1.4c0-0.5,0.2-1.1,0.6-1.7c0.4-0.6,0.9-0.9,1.6-0.8c0.3,0,0.5,0.1,0.8,0.3c0.3,0.2,0.6,0.3,0.9,0.3
		c0.9,0.1,2.2-0.1,4.1-0.6c1.9-0.4,3.6-1.2,5.2-2.2c1.6-1,2.4-2.3,2.5-3.9c0.1-1-0.5-1.8-1.6-2.4s-3.3-1.3-6.5-2.2
		c-0.4-0.2-0.8-0.3-1.1-0.4c-0.4-0.1-0.7-0.2-1-0.3c-3.2-1-5.7-2-7.4-3.1c-1.7-1.1-2.5-2.6-2.4-4.6
		C728.7,86.1,729.6,84.4,731.2,82.7z"/>
</g>
<g>
	<g>
		<path class="st1" d="M128.7,602.4c-15-5-28.4-10.4-36.8-19.7c-17.4-19.4-10.2-56.3,17.4-63.5c9.4-2.4,20.4-2,31.5-0.8l0.2-0.1
			c5-10,10.5-19.5,17.6-26.2c20.8-19.4,55.8-5.8,62.9,19.4c3.4,12.1-3.5,25.9-7.3,41.2c-5.4,21.6-7.4,42.8-17.5,62.4l0.2,1.5"/>
	</g>
</g>
<g>
	<path class="st0" d="M304.5,703.6c-10.2,0.7-20.1,0.6-29.5-0.3c-22.5-2-43.7-4.3-59.2-13.6c-11.9-7.1-21.5-15.4-25-28.9
		c-4.1-16.3-4.6-16.4-5.6-28.4c-0.3-3.4,0-7.8,0.1-13.9c0.1-7.1,1-8.6,2-12.1c1.6-3.2,4-11.1,7.5-13.4c9-5.9,20.3-9.8,20.6,0.9
		c0.1,3.4-0.7,6-1.7,11.1c-2.6,12.7,0.2,25.4,7.5,35.6c12.7,17.7,30.8,28.3,54.3,31.8c8.2,1,16.3,1.3,24.4,0.7
		c49-3.6,89.7-31.2,122.1-82.8c23.9-39.1,38.1-89.4,42.7-150.7c1.5-27.2,1.4-52-0.3-74.5c-1.9-26-5.9-48.9-12-68.5
		c-8.7-27.9-20-49.5-34-64.7c-17.2-18.4-36.1-29.7-56.6-33.8c-11.9-2.2-23.4-2.9-34.6-2.1c-25.2,1.8-46.1,10.2-62.9,25.2
		c-7.1,6.1-12.5,12.8-16.1,20.1c-3.2,6-4.6,12-4.1,17.9c0.3,4.3,1.6,8.6,3.9,13c-19.4-18.6-29.7-36.1-30.9-52.5
		c-0.7-9.7,1.7-18.4,7.3-26c13.4-17.4,36.2-27.3,68.6-29.6c22.8-1.7,47.6,2,74.5,10.8c24.1,8.2,46.9,21.6,68.5,40.3
		c20.8,18,38.1,41.7,52,71c13.3,28.5,21.2,60.9,23.8,97.1c1.4,18.7,1.4,38.7,0,60.1c-5.6,71.9-22.8,129.2-51.7,171.7
		c-24.5,35.4-52.9,59.3-85.3,71.7C350,696.4,326.6,702,304.5,703.6z M274.6,649.7c-5.2,0.4-10.2-0.9-15-3.9c-4.8-3-8.1-7.6-9.8-13.8
		c-2.1-9.2-3.9-24.3-5.4-45.1c-4.9-78-5.5-156.7-1.7-236.1c1.7-33.5,4.6-61.5,8.5-83.8c5.7-32.9,17.7-50.3,35.8-52.2
		c3.2-0.2,6.4,0.1,9.6,0.9c6.4,1.7,11.3,5.1,14.6,10.3c1.8,3.1,2.9,6.4,3.2,9.8c0.4,4.9-0.6,9.9-3,15.1c-1.3,2.4-2.4,3.7-3.5,3.8
		l-2.5-0.9c-2.5,0.9-5,8.1-7.6,21.7c-3.6,20.3-6.1,46.5-7.6,78.6c-4.3,84.8-4,161.6,1,230.4c0.7,9.2,2.4,23,5.2,41.6
		c0.4,4.8-1,9.6-4.1,14.1C288.3,646,282.5,649.1,274.6,649.7z"/>
</g>
</svg>
