<?xml version="1.0" encoding="utf-8"?>
<!-- Generator: Adobe Illustrator 24.0.1, SVG Export Plug-In . SVG Version: 6.00 Build 0)  -->
<svg version="1.1" id="Layer_1" xmlns="http://www.w3.org/2000/svg" xmlns:xlink="http://www.w3.org/1999/xlink" x="0px" y="0px"
	 viewBox="0 0 200 200" style="enable-background:new 0 0 200 200;" xml:space="preserve">
<style type="text/css">
	.st0{fill:#DA0080;stroke:#DA0080;stroke-miterlimit:10;}
	.st1{fill:none;stroke:#DA0080;stroke-width:4;stroke-miterlimit:10;}
	.st2{fill:#DA0080;stroke:#DA0080;stroke-width:4;stroke-miterlimit:10;}
</style>
<g>
	<path class="st0" d="M103.5,81.7c22.6,0,45.1,0,67.7,0c5.5,0,8.2,3.2,7.2,8.6c-3.9,20.4-7.9,40.9-11.8,61.3
		c-0.4,2.3-0.8,4.6-1.2,6.9c-0.5,3-3,5.3-6,5.6c-0.6,0-1.2,0-1.8,0c-35.9,0-71.8,0-107.7,0c-5.5,0-7.3-1.6-8.3-6.9
		c-2.1-11-4.2-22-6.4-33c-2.3-11.7-4.5-23.3-6.8-35c-0.6-3.3,1.8-6.7,5.3-7.3c0.7-0.1,1.4-0.1,2.2-0.1
		C58.4,81.7,80.9,81.7,103.5,81.7z"/>
	<path class="st0" d="M161.5,76.8c-2,0-3.7,0-5.5,0c-1,0-1.3-0.4-1.5-1.3c-1.4-8.9-2.9-17.7-4.3-26.6c-1-6.1-6.2-10.7-12.4-10.7
		c-4,0-8,0-12,0c-0.9,0-1.4,0.2-1.8,1.1c-1.2,2.5-3.3,3.8-6.1,3.8c-9.6,0-19.2,0-28.8,0c-2.8,0-4.9-1.3-6.1-3.8
		c-0.4-0.9-0.8-1.1-1.7-1.1c-4.1,0-8.2,0-12.3,0c-6.3,0-11.5,4.6-12.4,10.8c-1.4,8.8-2.8,17.6-4.3,26.4c-0.1,0.5-0.6,1.3-0.9,1.3
		c-2,0.1-3.9,0.1-6.1,0.1c1-6.1,1.9-11.8,2.8-17.5c0.6-3.7,1.2-7.4,1.8-11.2c1.4-9.3,8.5-15.9,17.8-16.5c4.5-0.3,9-0.2,13.5-0.2
		c0.8,0,1.2-0.2,1.5-1.1c1-3.3,3.3-4.9,6.8-4.9c9,0,18,0,27,0c5.1,0,6.7,1,8.5,6c3.8,0,7.8,0.2,11.7,0c10.7-0.6,19.4,8.1,20.5,17.3
		c1.1,9.1,2.8,18.1,4.2,27.1C161.5,76,161.5,76.2,161.5,76.8z"/>
</g>
<g>
	<polygon class="st1" points="135.7,63.1 135.7,54.5 112.7,54.5 112.7,63.1 97.6,63.1 97.6,56.9 74.6,56.9 74.6,70.2 58.3,70.2 
		58.3,88.4 74.6,88.4 74.6,90.9 93.8,90.9 93.8,97 116.7,97 116.7,88.4 125.3,88.4 125.3,97 148.3,97 148.3,86.7 148.3,63.1 	"/>
	<line class="st2" x1="74.6" y1="70.2" x2="74.6" y2="87.2"/>
	<line class="st2" x1="97.6" y1="63.1" x2="97.6" y2="87.2"/>
	<line class="st2" x1="112.7" y1="62.6" x2="112.7" y2="86.7"/>
	<line class="st2" x1="135.8" y1="62.6" x2="135.8" y2="86.7"/>
</g>
</svg>
